<svg id="Logo" xmlns="http://www.w3.org/2000/svg" width="155" height="178.979" viewBox="0 0 155 178.979">
  <path id="Path_7" data-name="Path 7" d="M134.234,0l44.745,77.5L134.234,155H44.745L0,77.5,44.745,0Z" transform="translate(155 0) rotate(90)" fill="#efac40"/>
  <path id="Path_8" data-name="Path 8" d="M106.519,0l35.506,61.5L106.519,123H35.506L0,61.5,35.506,0Z" transform="translate(139 18) rotate(90)" fill="#111"/>
  <path id="Path_9" data-name="Path 9" d="M101.325,0,135.1,58.5,101.325,117H33.775L0,58.5,33.775,0Z" transform="translate(136 21) rotate(90)" fill="#efac40"/>
  <path id="Path_10" data-name="Path 10" d="M73.612,0,98.15,42.5,73.612,85H24.537L0,42.5,24.537,0Z" transform="translate(120 40) rotate(90)" fill="#111"/>
  <path id="Path_11" data-name="Path 11" d="M68.416,0,91.221,39.5,68.416,79H22.805L0,39.5,22.805,0Z" transform="translate(117 43) rotate(90)" fill="#efac40"/>
  <path id="Path_12" data-name="Path 12" d="M34.641,0,46.188,20,34.641,40H11.547L0,20,11.547,0Z" transform="translate(98 66) rotate(90)" fill="#111"/>
</svg>
